<svg clip-rule="evenodd" fill-rule="evenodd" image-rendering="optimizeQuality" shape-rendering="geometricPrecision" text-rendering="geometricPrecision" viewBox="0 0 21.0002 21.0002" xmlns="http://www.w3.org/2000/svg"><g id="&#x56FE;&#x5C42;_x0020_1"><path d="m0 0h27.487v27.487h-27.487z" fill="none" transform="matrix(0 -.764 .764 0 0 21)"/><g id="_209071168" fill="#00ba00" fill-rule="nonzero"><path id="_204951616" d="m1.05005 10.5001c0-2.6091 1.05796-4.97166 2.76819-6.68184 1.71018-1.71023 4.07274-2.76819 6.68184-2.76819s4.97171 1.05801 6.68189 2.76814c1.71013 1.71018 2.76814 4.07274 2.76814 6.68189s-1.05801 4.97171-2.76814 6.68189c-1.71018 1.71013-4.07279 2.76814-6.68189 2.76814s-4.97166-1.05796-6.68184-2.76819c-1.71018-1.71013-2.76819-4.07274-2.76819-6.68184zm3.36208-6.08795c-1.55819 1.55814-2.52214 3.71076-2.52214 6.08795s.96395 4.52981 2.52214 6.08795c1.55814 1.55819 3.71076 2.52214 6.08795 2.52214s4.52981-.96395 6.088-2.52209c1.55814-1.55819 2.52209-3.71076 2.52209-6.088s-.96395-4.52981-2.52209-6.088c-1.55819-1.55814-3.71081-2.52209-6.088-2.52209s-4.52981.96395-6.08795 2.52214z"/><path id="_205309752" d="m5.7958 10.6098c-.16395-.16395-.16395-.42994 0-.59389s.42994-.16395.59389 0l3.30463 3.30463 4.87676-6.53193c.1386-.18573.40161-.22392.58734-.08532s.22392.40161.08532.58734l-5.15743 6.9078c-.01429.02074-.03061.04048-.04906.05893-.16395.16395-.42994.16395-.59389 0z"/></g></g></svg>