<svg height="512" viewBox="0 0 64 64" width="512" xmlns="http://www.w3.org/2000/svg"><g id="new"><path d="m60 44c0 5.1056-5 10-10 10a10.0472 10.0472 0 0 1 -10-9h-34a2 2 0 0 1 -2-2v-31a2 2 0 0 1 2-2h42a2 2 0 0 1 2 2v22a10.2774 10.2774 0 0 1 10 10z" fill="#fafafa"/><path d="m44 18a4 4 0 1 1 -4-4 4 4 0 0 1 4 4z" fill="#e0e0e0"/><path d="m5.3189 43.3708 14.8882-18.3913a1 1 0 0 1 1.5666.0153l6.2263 8.0052 6.2547-6.2547a1 1 0 0 1 1.45.0381l8.2953 9.2166s-4 2-4 9h-34a.9694.9694 0 0 1 -.6811-1.6292z" fill="#e0e0e0"/><path d="m56 44a1 1 0 0 1 -1 1h-4v4a1 1 0 0 1 -2 0v-4h-4a1 1 0 0 1 0-2h4v-4a1 1 0 0 1 2 0v4h4a1 1 0 0 1 1 1zm5 0a10.9958 10.9958 0 0 1 -21.8089 2h-33.1911a3.0033 3.0033 0 0 1 -3-3v-31a3.0033 3.0033 0 0 1 3-3h42a3.0033 3.0033 0 0 1 3 3v21.0507a11.0113 11.0113 0 0 1 10 10.9493zm-56-32v30.4l14.3931-17.9918a2 2 0 0 1 3.1895.0869l5.4195 7.0888 5.5009-5.5009a1.9774 1.9774 0 0 1 1.5248-.583 2.0011 2.0011 0 0 1 1.4512.7476l7.684 8.4453a10.9107 10.9107 0 0 1 4.837-1.6422v-21.0507a1.0013 1.0013 0 0 0 -1-1h-42a1.0013 1.0013 0 0 0 -1 1zm15.9741 13.6836-14.6924 18.3164h28.695zm18.0259 18.3164a10.9606 10.9606 0 0 1 3.5692-8.087l-7.6112-8.3676-5.7274 5.6455 8.2637 10.8091zm20 0a9 9 0 1 0 -9 9 9.01 9.01 0 0 0 9-9zm-24-26a5 5 0 1 1 5 5 5.0059 5.0059 0 0 1 -5-5zm2 0a3 3 0 1 0 3-3 3.0033 3.0033 0 0 0 -3 3z" fill="#9e9e9e"/></g></svg>