<svg enable-background="new 0 0 512 512" height="512" viewBox="0 0 512 512" width="512" xmlns="http://www.w3.org/2000/svg"><g id="_x31_5_Cargo"><g><path d="m367.566 128.243c0 18.891-4.736 36.714-13.036 52.347-2.903 5.397-6.212 10.489-9.879 15.276h-177.306c-3.666-4.787-6.976-9.879-9.879-15.276-8.3-15.633-13.036-33.455-13.036-52.347 0-61.513 50.055-111.568 111.568-111.568s111.568 50.055 111.568 111.568z" fill="#fff"/><path d="m235.443 180.808c-4.446 0-8.721-1.737-11.904-4.849l-27.431-26.791c-6.733-6.575-6.861-17.364-.286-24.097 6.579-6.735 17.379-6.85 24.095-.284l14.985 14.635 54.683-58.361c6.434-6.865 17.212-7.217 24.082-.785 6.87 6.434 7.219 17.219.785 24.086l-66.575 71.057c-3.132 3.343-7.475 5.284-12.054 5.385-.128.004-.256.004-.38.004z" fill="#fff"/><path d="m255.998 195.866v299.466h-154.443c-20.928 0-37.987-17.058-37.987-38.038v-166.563h131.682c4.481 0 8.606-2.495 10.846-6.365z" fill="#94c1ff"/><path d="m448.479 290.731v166.562c0 20.98-17.058 38.038-38.089 38.038h-154.392v-299.465l49.902 88.5c2.19 3.87 6.365 6.365 10.897 6.365z" fill="#94c1ff"/><path d="m480.531 290.716h-163.749c-4.493 0-8.667-2.461-10.859-6.366l-49.908-88.478h176.25c10.02 0 19.262 5.399 24.184 14.127l34.988 62.048c4.706 8.346-1.325 18.669-10.906 18.669z" fill="#d7e9ff"/><path d="m256.015 195.872-49.909 88.478c-2.246 3.905-6.365 6.366-10.859 6.366h-163.796c-9.575 0-15.567-10.324-10.913-18.669l35.04-62.061c4.924-8.72 14.162-14.113 24.176-14.113h176.261z" fill="#d7e9ff"/><g fill="#116fff"><path d="m317.149 76.558c-8.921-8.342-22.944-7.877-31.279 1.022l-51.13 54.566-11.263-11.002c-8.727-8.526-22.765-8.364-31.303.368-8.523 8.732-8.354 22.77.378 31.298l27.425 26.788c8.987 8.793 23.26 8.218 31.617-.699l66.58-71.058c8.339-8.908 7.876-22.941-1.025-31.283zm-6.41 24.322-66.575 71.056c-4.54 4.845-12.249 5.096-17.071.38l-27.425-26.791c-4.714-4.605-4.809-12.186-.209-16.895 4.658-4.762 12.236-4.758 16.897-.201l14.983 14.635c2.254 2.202 5.515 1.72 7.275-.162l54.685-58.36c4.495-4.801 12.074-5.055 16.887-.552 4.805 4.505 5.054 12.081.553 16.89z"/><path d="m51.142 207.481-35.048 62.085c-6.56 11.753 1.907 26.244 15.356 26.244h27.007v161.485c0 23.78 19.344 43.126 43.124 43.126h308.813c23.81 0 43.183-19.346 43.183-43.126v-161.486h26.952c13.474 0 21.971-14.509 15.346-26.264l-34.988-62.047c-5.818-10.313-16.783-16.718-28.623-16.718h-77.854c11.948-18.699 18.231-40.116 18.231-62.522 0-64.337-52.318-116.678-116.626-116.678-64.337 0-116.681 52.341-116.681 116.678 0 22.406 6.283 43.823 18.231 62.522h-77.81c-11.83 0-22.795 6.4-28.613 16.701zm-26.167 67.07 35.038-62.062c4.013-7.109 11.577-11.524 19.742-11.524h167.54l-45.604 80.847c-1.353 2.352-3.824 3.814-6.445 3.814-32.977 0-106.586 0-163.797 0-5.783-.001-9.183-6.232-6.474-11.075zm43.666 182.743v-161.485h126.606c6.256 0 12.109-3.419 15.296-8.958l40.379-71.586v274.972h-149.341c-18.161-.001-32.94-14.777-32.94-32.943zm374.751 0c0 18.165-14.804 32.942-32.999 32.942h-149.287v-274.971l40.374 71.578c3.108 5.53 8.971 8.966 15.301 8.966h126.611zm8.623-244.793 34.988 62.047c2.79 4.941-.784 11.077-6.475 11.077-57.079 0-130.604 0-163.748 0-2.655 0-5.117-1.445-6.425-3.777l-45.623-80.884h167.53c8.171 0 15.74 4.421 19.753 11.537zm-302.497-84.243c0-58.721 47.773-106.494 106.496-106.494 58.693 0 106.442 47.773 106.442 106.494 0 22.661-7.031 44.223-20.358 62.522-60.243 0-111.566 0-172.221 0-13.328-18.3-20.359-39.862-20.359-62.522z"/></g></g></g></svg>