<svg id="Layer_1" viewBox="0 0 512 512" xmlns="http://www.w3.org/2000/svg" data-name="Layer 1"><g fill-rule="evenodd"><path d="m128.429 329.656a147.309 147.309 0 0 0 201.227 53.916c70.344-40.607 94.533-130.872 53.916-201.219a146.315 146.315 0 0 0 -89.442-68.633 148.171 148.171 0 0 0 -38.364-5.081 147.364 147.364 0 0 0 -127.337 221.017zm-11.775 6.8a160.9 160.9 0 0 1 278.692-160.9c44.368 76.833 17.943 175.437-58.89 219.8a160.915 160.915 0 0 1 -219.8-58.9zm131.4-24.49c-15.157-2.458-29.32-11.493-33.391-29.193a6.8 6.8 0 1 1 13.251-3.041c3.623 15.729 19.839 20.867 34.312 18.983 8.364-1.088 14.785-5.353 17.146-11.395 1.836-4.673.846-9.647-2.788-14.009-5.78-6.936-11.977-7.869-20.556-9.161a76.881 76.881 0 0 1 -15.641-3.545l-.213-.088c-13.261-5.362-21.062-15.679-20.887-27.589.185-12.2 8.512-23.131 21.207-27.832a44.241 44.241 0 0 1 7.56-2.07v-11.657a6.8 6.8 0 0 1 13.6 0v11.493c13.765 2.225 25.568 11.813 31.252 26.822a6.8 6.8 0 1 1 -12.717 4.818c-5.877-15.533-19.933-22.227-34.963-16.66-7.286 2.7-12.24 8.85-12.337 15.291-.1 6.227 4.266 11.462 12.289 14.747a65.71 65.71 0 0 0 12.862 2.827c9.336 1.4 19.906 2.981 29 13.9 6.849 8.229 8.676 18.312 5 27.677-4.206 10.735-14.7 18.176-28.066 19.915-.767.107-1.544.185-2.32.252v11.056a6.8 6.8 0 1 1 -13.6 0v-11.54zm-86.743-1.292a109.415 109.415 0 0 1 94.513-164.061 110.153 110.153 0 0 1 28.473 3.77 109.347 109.347 0 1 1 -122.985 160.291zm-11.783 6.8a122.8 122.8 0 1 1 106.672 61.526 123.653 123.653 0 0 1 -32.02-4.236 122.135 122.135 0 0 1 -74.655-57.287zm309.206 64.379 3.02 49.447a6.808 6.808 0 0 1 -6.372 7.2c-.146.009-.281.009-.428.009a6.8 6.8 0 0 1 -6.78-6.382l-1.837-30.1a239.922 239.922 0 0 1 -422.283-207.394 6.8 6.8 0 0 1 13.146 3.487 226.318 226.318 0 0 0 398.92 194.885l-29.746 7.072a6.8 6.8 0 0 1 -3.145-13.241l47.143-11.191a6.81 6.81 0 0 1 8.365 6.208zm29.512-65.642a6.805 6.805 0 0 1 -6.577 5.09 7.074 7.074 0 0 1 -1.719-.223 6.81 6.81 0 0 1 -4.867-8.3 226.309 226.309 0 0 0 -398.435-194.765l29.6-7.023a6.8 6.8 0 1 1 3.137 13.231l-47.141 11.191a6.547 6.547 0 0 1 -1.566.185 6.795 6.795 0 0 1 -6.791-6.392l-3.021-49.438a6.8 6.8 0 1 1 13.571-.835l1.857 30.26a239.912 239.912 0 0 1 421.953 207.019z" fill="#57a4ff"/><path d="m329.656 383.572c70.344-40.607 94.533-130.872 53.916-201.219a146.315 146.315 0 0 0 -89.442-68.633 148.171 148.171 0 0 0 -38.364-5.081 147.334 147.334 0 1 0 73.89 274.933zm45.105-95.747a123.114 123.114 0 0 1 -118.561 91.175 123.653 123.653 0 0 1 -32.02-4.236 122.938 122.938 0 1 1 150.577-86.936z" fill="#9bc9ff"/></g></svg>