<svg id="Layer_1" enable-background="new 0 0 512 512" viewBox="0 0 512 512" xmlns="http://www.w3.org/2000/svg"><g clip-rule="evenodd" fill-rule="evenodd"><path d="m206.246 338.122-46.233-26.692v-106.252l91.988 53.095v106.279l-45.761-26.42zm103.474-108.539 2.916-1.684v35.293l-20.887 12.06v-35.308l17.965-10.372zm-3.963-6.918 2.919-1.686-92.029-53.133-20.902 12.084 92.026 53.131 17.991-10.387z" fill="#78bff3"/><path d="m259.06 135.404 49.931 28.827.006-.01 49.933 28.829c1.905 1.085 3.028 3.028 3.047 5.215h.014v115.457c0 2.375-1.38 4.427-3.381 5.4l-49.613 28.644c-.11.063-.22.122-.332.178l-49.188 28.399c-2.327 1.495-4.622 1.494-6.948 0l-49.514-28.587-.006.01-49.994-28.864c-1.914-1.109-2.984-3.116-2.986-5.18h-.014v-115.456c0-2.375 1.38-4.427 3.381-5.4l49.613-28.644 50.018-28.864c1.936-1.115 4.238-1.02 6.033.046zm53.322-30.364c47.732 17.833 84.775 57.798 98.628 106.956.893 3.184 4.199 5.041 7.383 4.148s5.041-4.199 4.148-7.383c-14.891-52.839-54.659-95.779-105.988-114.925-3.093-1.152-6.536.422-7.688 3.516-1.151 3.094.424 6.536 3.517 7.688zm89.337 219.717c-17.877 37.81-50.093 67.553-89.337 82.191-3.094 1.152-4.668 4.594-3.516 7.688s4.594 4.668 7.688 3.516c42.204-15.742 76.794-47.639 95.992-88.285 1.411-2.99.131-6.558-2.859-7.969s-6.557-.131-7.968 2.859zm-202.097 82.191c-39.243-14.661-71.471-44.365-89.337-82.191-1.411-2.99-4.979-4.27-7.968-2.859-2.99 1.411-4.27 4.979-2.859 7.969 19.198 40.646 53.788 72.542 95.993 88.285 3.094 1.152 6.536-.422 7.688-3.516 1.15-3.094-.424-6.536-3.517-7.688zm-98.629-194.952c13.929-49.186 50.85-89.135 98.629-106.956 3.093-1.152 4.667-4.594 3.516-7.688-1.152-3.093-4.594-4.668-7.688-3.516-51.329 19.146-91.097 62.086-105.988 114.925-.893 3.184.964 6.49 4.148 7.383 3.184.894 6.49-.963 7.383-4.148zm133.795 211.477-32.94 19.018c-3.171 1.736-4.168 5.457-2.296 8.542l19.031 32.961c1.656 2.861 5.319 3.836 8.18 2.18 2.861-1.657 3.836-5.319 2.18-8.18l-12.26-21.235c50.059 9.854 100.016.393 141.587-23.608 45.357-26.187 80.72-69.66 95.337-124.214 12.476-46.562 7.831-93.689-10.077-134.696-18.264-41.823-50.329-77.269-92.097-99.243-2.925-1.54-6.546-.417-8.086 2.508s-.417 6.546 2.508 8.086c39.325 20.689 69.512 54.059 86.706 93.431 16.853 38.592 21.22 82.962 9.468 126.821-13.768 51.384-47.044 92.313-89.713 116.948-38.621 22.298-84.948 31.26-131.486 22.563l19.958-11.523c2.86-1.656 3.836-5.319 2.18-8.18-1.657-2.86-5.319-3.836-8.18-2.179zm48.273-389.502 12.275 21.26c-50.064-9.859-100.026-.398-141.602 23.605-45.357 26.187-80.72 69.661-95.337 124.214-12.563 46.888-7.774 94.337 10.433 135.528 18.559 41.989 51.065 77.479 93.347 99.246 2.938 1.514 6.548.36 8.063-2.578 1.514-2.938.36-6.548-2.578-8.063-80.072-41.244-121.212-133.242-97.687-221.04 13.768-51.384 47.044-92.313 89.713-116.948 38.621-22.298 84.948-31.26 131.487-22.563l-19.958 11.523c-2.861 1.657-3.836 5.319-2.18 8.18 1.657 2.861 5.319 3.837 8.18 2.18l32.942-19.019c3.213-1.76 4.199-5.505 2.184-8.706l-18.923-32.772c-1.644-2.86-5.296-3.847-8.156-2.203-2.861 1.643-3.847 5.296-2.203 8.156zm-3.251 308.149 17.569-10.143c2.861-1.644 3.847-5.296 2.203-8.156-1.644-2.861-5.296-3.847-8.156-2.203l-17.569 10.144c-2.861 1.644-3.847 5.296-2.203 8.156s5.296 3.846 8.156 2.202zm.023-20.816 17.569-10.144c2.86-1.657 3.836-5.319 2.18-8.18-1.657-2.86-5.319-3.836-8.18-2.18l-17.569 10.144c-2.86 1.657-3.836 5.319-2.18 8.18 1.657 2.86 5.32 3.836 8.18 2.18zm13.916-80.205v30.689l16.888-9.75v-30.675l-1.64.947-.006-.01zm28.888-16.665v41.051h-.014c-.002 2.064-1.072 4.071-2.986 5.18l-28.864 16.665-.004-.007c-3.932 2.282-8.972-.533-8.972-5.173v-34.15l-19.794 11.428v101.66l87.989-50.813v-101.633zm-46.813 13.217-88.029-50.824-19.81 11.438 88.017 50.83zm-76.081-57.721 88.029 50.823 15.23-8.793-.006-.01 1.681-.97-88.029-50.824zm28.853-16.672 88.029 50.824 27.394-15.816-41.023-23.685.006-.01-47-27.136zm21.406 96.17-87.988-50.787v101.633l46.994 27.132-.006.01 41 23.671z" fill="#1a92ea"/></g></svg>