<?xml version="1.0" encoding="UTF-8"?>
<svg version="1.1" viewBox="0 0 2046 2046" width="1280" height="1280" xmlns="http://www.w3.org/2000/svg">
<path transform="translate(0)" d="m0 0h2046v2046h-2046z" fill="#fff"/>
<path transform="translate(1369,423)" d="m0 0h11l12 3 9 5 193 193 8 16 2 8v20l-4 13-6 10-9 10-41 41-7 8-58 58-7 8-56 56-7 8-60 60-7 8-60 60-7 8-60 60-7 8-14 14-11 9-15 11-18 10-18 8-20 6-24 4h-37l-20-3-21-6-16-6-19-10-16-11-13-11-15-14-157-157v-1h24l19-3 18-6 16-8 14-9 14-11 40-40 8-7 36-36 8-7 25-25 8-7 56-56 8-7 55-55 8-7 48-48 8-7 74-74 8-7 57-57 8-7 10-10 10-6 9-3z" fill="#ED1C24"/>
<path transform="translate(765,241)" d="m0 0h19l12 3 13 7 10 9 275 275-6 7-18 18-7 8-10 10-8 7-23 23-7 8-10 10-8 7-23 23-7 8-10 10-8 7-23 23-7 8-10 10-8 7-48 48-15 11-18 11-15 7-26 8-17 3-10 1h-30l-24-4-20-6-18-8-17-9-11-8-5-3-171-171-7-11-4-10-2-12v-10l3-14 7-14 11-12 272-272 11-7 13-5z" fill="#005AA9"/>
<path transform="translate(1293,350)" d="m0 0h8l14 3 16 8 45 45v1l-18 3-13 5-11 7-12 11-47 47-8 7-54 54-8 7-69 69-8 7-54 54-8 7-57 57-8 7-35 35-8 7-27 27-8 7-54 54-17 13-16 9-14 6-16 4-7 1h-19l-15-3-14-5-8-7-67-67-7-8-39-39h3l14 9 21 11 19 7 21 5 14 2h30l22-3 19-5 19-7 17-9 16-11 11-9 51-51 8-7 9-9 7-8 24-24 8-7 9-9 7-8 24-24 8-7 9-9 7-8 24-24 8-7 9-9 7-8 18-18 8-7 80-80 7-8 16-17 22-24 24-26 12-12 10-6 10-4z" fill="#ED1C24"/>
<path transform="translate(608,1231)" d="m0 0h99l10 13 28 36 10 13 56 72 10 13 42 54 1 2v-167l-3-8-18-27v-1h95l-6 9-14 18-4 6-1 4-1 298-20-3-19-5-17-7-15-9-11-9-14-14-13-17-42-54-10-13-28-36-10-13-28-36-2-3v177l8 11 10 13 6 9h-94l6-11 12-18 2-5v-250l-14-23-11-18z" fill="#ED1C24"/>
<path transform="translate(1247,1232)" d="m0 0h115l8 20 17 46 66 177 15 40 8 14 9 10 7 8 9 8v2h-143l2-4 5-5 5-8 3-9v-20l-8-24-10-26v-3l-107 1-16 49-3 11v12l4 13 6 8 2 4h-91l2-4 9-9 9-14 5-12 17-50 15-43 23-67 18-52 11-33v-14l-4-13-8-12z" fill="#005BAA"/>
<path transform="translate(956,1232)" d="m0 0h168l16 3 16 6 14 9 12 11 9 12 8 16 4 13 1 6v36l-4 16-8 16-8 11-11 11-14 9-13 6-15 4-6 1-20 1h-28l5-4 11-8 9-10 8-14 5-15 2-12v-23l-4-18-5-12-6-10-9-8-10-4-16-1-4-1 1 246 4 8 9 12 8 10v1h-125l3-5 9-14 4-10v-270l-4-8-11-11-5-4z" fill="#005BAA"/>
<path transform="translate(280,1231)" d="m0 0h101l21 61 13 37 22 63 17 49 11 30 13-37 30-84 19-53 9-26v-7l-4-10-10-20v-3h75l-3 12-18 53-15 43-17 50-15 43-16 47-15 43-14 41-1 1-9-1-20-6-15-6-17-9-13-10-11-10-10-14-8-16-18-47-46-122-17-45-12-31-7-14z" fill="#ED1C24"/>
<path transform="translate(1430,1232)" d="m0 0h112l15 24 14 23 26 42 16 26 4 6 6-2 2-5 8-11 29-44 7-10 4-8 2-7v-12l-4-11-7-9-1-2h105l-2 5-13 18-28 40-72 102-5 7v128l9 10 9 11 2 3-1 1h-130l2-5 14-19 1-1v-44l-1-84-14-20-16-23-14-20-16-23-14-20-16-23-14-20-8-11v-2l-4-2-7-7z" fill="#005BAA"/>
<path transform="translate(813,409)" d="m0 0h28l25 3 21 5 21 7 25 12 19 12 11 9 14 12 5 6 1 2v7l-4 6-4 2h-7l-6-4-8-8-17-13-16-10-16-8-18-7-19-5-17-3-11-1h-25l-24 3-23 6-25 10-18 10-14 10-14 12-13 13-11 14-11 17-12 25-7 22-4 19-2 22v14l2 22 4 19 5 17 10 23 8 14 10 14 9 11 13 13 7 8 45 45v2h-28l-6-2-7-8-43-43-11-14-12-18-12-23-9-24-6-26-2-14-1-14v-18l2-22 5-24 9-27 11-23 12-19 13-16 11-12 7-7 11-9 15-11 15-9 23-11 24-8 24-5z" fill="#009CD9"/>
<path transform="translate(820,544)" d="m0 0h15l15 3 13 5 10 6 13 11 12 12 7 8 68 68-6 7-9 9-4-1-32-32-7-8-52-52-14-8-9-3-6-1h-13l-13 3-13 7-10 9-7 11-4 10-2 12 1 14 4 12 6 11 21 21 7 8 36 36 2 5-1 7-5 5-2 1h-8l-8-6-7-8-52-52-9-14-5-12-3-11-1-9v-9l2-14 5-15 7-12 9-11 9-8 14-8 14-5z" fill="#009CD9"/>
<path transform="translate(713,535)" d="m0 0h6l6 4 2 3v9l-9 16-7 16-4 14-2 13v26l3 17 6 18 8 16 10 14 11 12 65 65 7 8 9 9v2l-19 9-4-1-81-81-9-11-9-13-10-19-7-21-3-14-1-8v-30l3-18 6-20 9-19 8-12z" fill="#009CD9"/>
<path transform="translate(824,476)" d="m0 0 21 1 21 4 20 7 19 10 14 10 12 11 89 89-1 4-13 13-4-1-79-79-7-8-10-9-14-10-16-8-21-7-12-2-16-1-21 2-16 4h-8l-6-4-2-4v-7l3-5 9-4 17-4z" fill="#009CD9"/>
<path transform="translate(1299,1311)" d="m0 0 2 2 26 70 11 29v3h-75l3-10 19-55z" fill="#fff"/>
<path transform="translate(1031,1664)" d="m0 0 5 1 2 4-5 5 1 4 2 5v13l-3 6-5 5-12 3-15 1-2 1 1 4 26 2 8 4 3 4 1 10-2 7-5 5-6 2-7 1h-11l-11-2-6-4-3-8 1-8 4-7-3-4v-6l5-5h3v-2l-4-2-3-4-1-3v-13l4-8 5-4 6-2h17l4 1z" fill="#009DDA"/>
<path transform="translate(1331,1664)" d="m0 0 5 1 2 4-6 7 3 4 1 3v12l-3 7-6 5-5 2-6 1-16 1-2 5 28 2 8 4 3 5v13l-3 5-5 4-11 2h-11l-11-2-6-4-3-7v-7l3-6 2-3-3-4v-6l4-5h3l-6-8-1-2v-15l4-7 7-5 4-1h16l4 1z" fill="#009DDA"/>
<path transform="translate(823,612)" d="m0 0h9l8 7 75 75 6 7 4 3-2 4-13 13-4-2-88-88-2-4v-8l5-6z" fill="#009CD9"/>
<path transform="translate(1119,1646)" d="m0 0h6l2 4v6h8l1 1v6l-1 1-8 1v39l-2 11-6 8-10 4h-15l-8-3-6-5-3-7-1-5v-18l2-9 5-7 5-3 4-1h16l6 3 4 3v-11h-17l-2-1v-6l1-1h18v-9z" fill="#009DDA"/>
<path transform="translate(1153,1669)" d="m0 0h19l10 5 3 4v2l2-1 2-9h7v8l-3 6-4 3h-2l1 3v15l-2 10-6 8-10 4h-15l-10-4-5-6-2-5-1-7v-15l2-9 4-6 5-4z" fill="#009DDA"/>
<path transform="translate(1594,1669)" d="m0 0h18l10 5 3 4v2l2-1 2-9h7v8l-3 6-4 3h-2l1 3v16l-2 9-4 6-8 5-4 1h-15l-10-4-5-6-2-5v-28l4-8 6-5z" fill="#009DDA"/>
<path transform="translate(884,1669)" d="m0 0h18l8 3 6 7 2 7v23l-3 9-8 7-7 2h-14l-9-3-5-5-3-5-1-4v-24l4-10 5-4z" fill="#009DDA"/>
<path transform="translate(497,1669)" d="m0 0h18l9 4 4 5 3 9v21l-3 9-5 6-10 4h-15l-10-4-5-6-2-6v-26l4-9 6-5z" fill="#009DDA"/>
<path transform="translate(694,1669)" d="m0 0h18l8 3 6 7 2 7v23l-3 9-8 7-7 2h-14l-9-3-7-8-2-7v-23l3-8 4-5z" fill="#009DDA"/>
<path transform="translate(1379,1669)" d="m0 0h22l8 4 4 4 2 7v28l-3 8-6 5-7 2h-15l-8-3-5-5-2-6v-7l4-8 8-4 5-1h20l-2-12-4-3-12-1-12 1-1-1v-6z" fill="#009DDA"/>
<path transform="translate(1520,1646)" d="m0 0h6l1 1 1 27 6-4 3-1h16l8 4 4 7 1 4v41l-1 1h-7l-1-1-1-40-3-5-5-2h-11l-6 3-3 6-1 38-1 1h-7l-1-2v-76z" fill="#009DDA"/>
<path transform="translate(423,1646)" d="m0 0h6l1 1 1 27 6-4 3-1h16l8 4 4 6 1 4v42l-1 1h-7l-1-1-1-40-3-5-4-2h-12l-6 3-3 7-1 37-1 1h-6l-2-2v-76z" fill="#009DDA"/>
<path transform="translate(382,1651)" d="m0 0h16l9 3 2 2v6l-4 1-6-2-11-1-9 2-5 4-3 8v30l3 8 5 4 3 1h17l10-2 1 1-1 7-6 3-5 1h-16l-9-3-6-4-5-8-1-4v-37l4-10 8-7z" fill="#009DDA"/>
<path transform="translate(1156,1677)" d="m0 0h13l6 3 3 4 1 5v18l-3 8-5 3-5 1h-7l-7-2-5-6-1-5v-17l2-7 5-4z" fill="#fff"/>
<path transform="translate(1095,1677)" d="m0 0h13l6 3 3 5 1 5v16l-2 7-6 5-5 1h-7l-9-3-3-5-1-4v-19l3-7 4-3z" fill="#fff"/>
<path transform="translate(1596,1677)" d="m0 0h13l6 3 3 4 1 4v19l-3 8-5 3-5 1h-7l-7-2-5-6-1-6v-14l2-8 5-5z" fill="#fff"/>
<path transform="translate(500,1677)" d="m0 0h12l6 3 3 4 1 3v22l-3 6-5 3-5 1h-7l-7-2-4-4-1-3v-25l3-5z" fill="#fff"/>
<path transform="translate(697,1677)" d="m0 0h12l7 3 3 6v24l-4 6-9 3-11-1-6-4-2-5v-23l3-5 4-3z" fill="#fff"/>
<path transform="translate(887,1677)" d="m0 0h12l6 3 3 3 1 3v24l-4 6-9 3-11-1-6-4-2-5v-23l3-5 4-3z" fill="#fff"/>
<path transform="translate(1214,1669)" d="m0 0h18l7 3 5 5 3 8v40l-1 1h-7l-1-1-1-39-3-6-5-2h-12l-6 3-2 5-1 39-1 1h-7l-1-2v-39l3-8 7-6z" fill="#009DDA"/>
<path transform="translate(1441,1669)" d="m0 0h18l7 3 5 4 3 8v41l-1 1h-7l-1-1-1-40-3-5-5-2h-12l-6 3-2 5-1 39-1 1h-6l-2-2v-38l3-9 7-6z" fill="#009DDA"/>
<path transform="translate(1654,1669)" d="m0 0h18l7 3 5 5 3 7v41l-1 1h-7l-1-1-1-40-3-5-5-2h-12l-6 3-2 5-1 39-1 1h-6l-2-2v-38l3-9 7-6z" fill="#009DDA"/>
<path transform="translate(620,1670)" d="m0 0h7l1 1 1 38 2 5 4 3 5 1h7l7-2 3-5 1-40 1-1h7l1 1v41l-4 8-6 5-6 2h-15l-10-4-5-6-2-8v-37z" fill="#009DDA"/>
<path transform="translate(944,1669)" d="m0 0h19l8 4 5 6 1 3v43l-1 1h-7l-1-2-1-40-1-4-6-2h-13l-6 2-2 9-1 36-1 1h-6l-1-1v-42l4-8 5-4z" fill="#009DDA"/>
<path transform="translate(1028,530)" d="m0 0h7l5 3 28 28-2 4-13 13-4-2-12-13-15-15-2-5 1-6 5-6z" fill="#009CD9"/>
<path transform="translate(828,1669)" d="m0 0h19l7 3 1 1v5l-1 1-9-1h-15l-3 2v6l3 3 21 10 6 7v12l-5 6-8 3h-17l-9-2-2-2v-6l4-1 11 2h11l5-2 1-5-5-5-20-10-5-5-1-3v-10l4-6z" fill="#009DDA"/>
<path transform="translate(755,1669)" d="m0 0h17l5 2 1 7-4 1-4-1h-12l-7 3-2 4-1 6v14l2 8 3 3 8 2h8l9-1 1 1-1 7-7 2h-14l-11-4-6-8-1-4v-27l4-8 6-5z" fill="#009DDA"/>
<path transform="translate(588,1669)" d="m0 0h17l5 2 1 7-4 1-4-1h-12l-7 3-2 4-1 6v14l2 8 3 3 8 2h8l9-1 1 1-1 7-7 2h-14l-9-3-5-4-3-5-1-4v-26l3-7 4-5z" fill="#009DDA"/>
<path transform="translate(1311,1676)" d="m0 0 9 1 6 5 1 2v11l-4 5-6 2h-9l-8-3-2-3-1-9 3-7 5-3z" fill="#fff"/>
<path transform="translate(1011,1676)" d="m0 0 9 1 5 3 2 4v11l-4 5-6 2h-9l-7-3-3-4v-12l5-5z" fill="#fff"/>
<path transform="translate(1e3 1725)" d="m0 0h19l7 2 3 4-1 8-4 3-4 1h-15l-7-3-2-4 1-7z" fill="#fff"/>
<path transform="translate(1300,1725)" d="m0 0h19l7 2 2 2 1 5-3 7-6 2h-15l-7-3-2-3 1-9z" fill="#fff"/>
<path transform="translate(1388,1700)" d="m0 0h18v12l-3 5-4 2h-15l-5-4-1-2v-6l2-4z" fill="#fff"/>
<path transform="translate(1349,1670)" d="m0 0h8v55l-1 1h-6l-1-1z" fill="#009DDA"/>
<path transform="translate(890,1648)" d="m0 0h6l5 5 5 7v3h-6l-6-8-3 1-4 7h-7l2-6 6-8z" fill="#009DDA"/>
<path transform="translate(700,1648)" d="m0 0h6l5 4 5 8v3h-6l-6-8-3 1-4 7h-7l2-5 6-9z" fill="#009DDA"/>
<path transform="translate(1391,1642)" d="m0 0h6l5 4v8l-6 7-2 3-4-1v-5l5-6 1-4-9 1-1-5z" fill="#009DDA"/>
<path transform="translate(914,1634)" d="m0 0h6v4l-6 10-2 2h-6l-1-2 7-13z" fill="#009DDA"/>
<path transform="translate(701,1735)" d="m0 0 6 1 2 2-1 7-3 2-5-1-2-2v-6z" fill="#009DDA"/>
<path transform="translate(1350,1647)" d="m0 0h6l3 4-1 5-3 2h-5l-3-4 1-5z" fill="#009DDA"/>
</svg>
