<svg xmlns="http://www.w3.org/2000/svg" xmlns:xlink="http://www.w3.org/1999/xlink" width="491" zoomAndPan="magnify" viewBox="0 0 368.25 139.500001" height="186" preserveAspectRatio="xMidYMid meet" version="1.0"><defs><g/><clipPath id="27b56ff3aa"><path d="M 3.605469 11.265625 L 92.421875 11.265625 L 92.421875 111.894531 L 3.605469 111.894531 Z M 3.605469 11.265625 " clip-rule="nonzero"/></clipPath></defs><g clip-path="url(#27b56ff3aa)"><path fill="#2266cc" d="M 92.308594 108.773438 L 86.554688 37.558594 C 86.441406 36.152344 85.265625 35.070312 83.855469 35.070312 L 68.40625 35.070312 L 68.40625 31.644531 C 68.40625 20.40625 59.386719 11.265625 48.148438 11.265625 L 47.789062 11.265625 C 36.550781 11.265625 27.289062 20.40625 27.289062 31.644531 L 27.289062 35.070312 L 12.082031 35.070312 C 10.671875 35.070312 9.496094 36.152344 9.382812 37.558594 L 3.613281 108.972656 C 3.550781 109.726562 3.808594 110.46875 4.320312 111.027344 C 4.832031 111.582031 5.554688 111.894531 6.308594 111.894531 L 89.636719 111.894531 C 91.128906 111.894531 92.339844 110.6875 92.339844 109.191406 C 92.339844 109.046875 92.328125 108.910156 92.308594 108.773438 Z M 32.699219 31.644531 C 32.699219 23.390625 39.535156 16.675781 47.789062 16.675781 L 48.148438 16.675781 C 56.402344 16.675781 62.996094 23.390625 62.996094 31.644531 L 62.996094 35.070312 L 32.699219 35.070312 Z M 32.699219 31.644531 " fill-opacity="1" fill-rule="nonzero"/></g><g fill="#2266cc" fill-opacity="1"><g transform="translate(97.685945, 97.530256)"><g><path d="M 44.375 -52.375 L 44.375 -46.546875 L 15.640625 -7.78125 L 45.203125 -7.78125 L 45.203125 0 L 4.484375 0 L 4.484375 -5.90625 L 33.375 -44.59375 L 6.4375 -44.59375 L 6.4375 -52.375 Z M 44.375 -52.375 "/></g></g></g><g fill="#2266cc" fill-opacity="1"><g transform="translate(149.6136, 97.530256)"><g><path d="M 39.140625 -5.15625 L 39.0625 -5.15625 C 37.46875 -3.613281 35.269531 -2.242188 32.46875 -1.046875 C 29.675781 0.148438 26.757812 0.75 23.71875 0.75 C 19.625 0.75 16.019531 -0.109375 12.90625 -1.828125 C 9.789062 -3.554688 7.359375 -5.925781 5.609375 -8.9375 C 3.867188 -11.957031 3 -15.390625 3 -19.234375 C 3 -23.617188 3.921875 -27.367188 5.765625 -30.484375 C 7.609375 -33.609375 10.050781 -36.003906 13.09375 -37.671875 C 16.132812 -39.347656 19.453125 -40.1875 23.046875 -40.1875 C 26.335938 -40.1875 29.328125 -39.375 32.015625 -37.75 C 34.710938 -36.125 36.859375 -33.890625 38.453125 -31.046875 C 40.054688 -28.203125 40.859375 -24.882812 40.859375 -21.09375 L 40.78125 -17.8125 L 10.703125 -17.8125 C 11.148438 -14.269531 12.609375 -11.460938 15.078125 -9.390625 C 17.546875 -7.316406 20.675781 -6.28125 24.46875 -6.28125 C 27.207031 -6.28125 29.425781 -6.789062 31.125 -7.8125 C 32.820312 -8.84375 34.21875 -9.832031 35.3125 -10.78125 Z M 23.046875 -33.078125 C 20.097656 -33.078125 17.523438 -32.390625 15.328125 -31.015625 C 13.140625 -29.640625 11.695312 -27.28125 11 -23.9375 L 33 -23.9375 L 33 -24.46875 C 32.851562 -26.164062 32.289062 -27.660156 31.3125 -28.953125 C 30.34375 -30.253906 29.132812 -31.265625 27.6875 -31.984375 C 26.238281 -32.710938 24.691406 -33.078125 23.046875 -33.078125 Z M 23.046875 -33.078125 "/></g></g></g><g fill="#2266cc" fill-opacity="1"><g transform="translate(196.07914, 97.530256)"><g><path d="M 25.96875 -40.109375 C 29.507812 -40.109375 32.25 -39.382812 34.1875 -37.9375 C 36.132812 -36.488281 37.492188 -34.539062 38.265625 -32.09375 C 39.046875 -29.65625 39.4375 -26.9375 39.4375 -23.9375 L 39.4375 0 L 31.734375 0 L 31.734375 -23.421875 C 31.734375 -25.316406 31.484375 -27.007812 30.984375 -28.5 C 30.484375 -30 29.632812 -31.171875 28.4375 -32.015625 C 27.238281 -32.867188 25.566406 -33.222656 23.421875 -33.078125 C 21.421875 -33.078125 19.644531 -32.648438 18.09375 -31.796875 C 16.550781 -30.953125 15.332031 -29.832031 14.4375 -28.4375 C 13.539062 -27.039062 13.09375 -25.492188 13.09375 -23.796875 L 13.09375 0 L 5.390625 0 L 5.390625 -39.28125 L 13.09375 -39.28125 L 13.09375 -33.078125 C 14.289062 -34.921875 16.035156 -36.550781 18.328125 -37.96875 C 20.628906 -39.394531 23.175781 -40.109375 25.96875 -40.109375 Z M 25.96875 -40.109375 "/></g></g></g><g fill="#2266cc" fill-opacity="1"><g transform="translate(243.21809, 97.530256)"><g><path d="M 25.890625 -39.953125 C 29.378906 -39.953125 32.507812 -39.09375 35.28125 -37.375 C 38.050781 -35.65625 40.234375 -33.273438 41.828125 -30.234375 C 43.421875 -27.191406 44.21875 -23.675781 44.21875 -19.6875 C 44.21875 -15.738281 43.421875 -12.226562 41.828125 -9.15625 C 40.234375 -6.09375 38.0625 -3.6875 35.3125 -1.9375 C 32.570312 -0.195312 29.503906 0.671875 26.109375 0.671875 C 23.316406 0.671875 20.785156 0.0703125 18.515625 -1.125 C 16.242188 -2.320312 14.460938 -3.691406 13.171875 -5.234375 L 13.171875 16.46875 L 5.390625 16.46875 L 5.390625 -39.359375 L 13.171875 -39.359375 L 13.171875 -33.59375 C 14.316406 -35.238281 16.035156 -36.707031 18.328125 -38 C 20.628906 -39.300781 23.148438 -39.953125 25.890625 -39.953125 Z M 24.84375 -32.84375 C 22.5 -32.84375 20.414062 -32.269531 18.59375 -31.125 C 16.769531 -29.976562 15.347656 -28.421875 14.328125 -26.453125 C 13.304688 -24.484375 12.796875 -22.226562 12.796875 -19.6875 C 12.796875 -17.1875 13.304688 -14.9375 14.328125 -12.9375 C 15.347656 -10.945312 16.769531 -9.363281 18.59375 -8.1875 C 20.414062 -7.019531 22.5 -6.4375 24.84375 -6.4375 C 27.1875 -6.4375 29.253906 -7.019531 31.046875 -8.1875 C 32.847656 -9.363281 34.257812 -10.945312 35.28125 -12.9375 C 36.300781 -14.9375 36.8125 -17.1875 36.8125 -19.6875 C 36.8125 -22.226562 36.300781 -24.484375 35.28125 -26.453125 C 34.257812 -28.421875 32.847656 -29.976562 31.046875 -31.125 C 29.253906 -32.269531 27.1875 -32.84375 24.84375 -32.84375 Z M 24.84375 -32.84375 "/></g></g></g><g fill="#2266cc" fill-opacity="1"><g transform="translate(293.05069, 97.530256)"><g><path d="M 10.5625 -47.8125 C 8.8125 -47.8125 7.507812 -48.257812 6.65625 -49.15625 C 5.8125 -50.0625 5.390625 -51.234375 5.390625 -52.671875 C 5.390625 -53.921875 5.8125 -55.046875 6.65625 -56.046875 C 7.507812 -57.046875 8.8125 -57.546875 10.5625 -57.546875 C 12.300781 -57.546875 13.59375 -57.09375 14.4375 -56.1875 C 15.289062 -55.289062 15.71875 -54.117188 15.71875 -52.671875 C 15.71875 -51.429688 15.289062 -50.3125 14.4375 -49.3125 C 13.59375 -48.3125 12.300781 -47.8125 10.5625 -47.8125 Z M 14.515625 0 L 6.8125 0 L 6.8125 -39.28125 L 14.515625 -39.28125 Z M 14.515625 0 "/></g></g></g><g fill="#2266cc" fill-opacity="1"><g transform="translate(316.470607, 97.530256)"><g><path d="M 10.5625 -47.8125 C 8.8125 -47.8125 7.507812 -48.257812 6.65625 -49.15625 C 5.8125 -50.0625 5.390625 -51.234375 5.390625 -52.671875 C 5.390625 -53.921875 5.8125 -55.046875 6.65625 -56.046875 C 7.507812 -57.046875 8.8125 -57.546875 10.5625 -57.546875 C 12.300781 -57.546875 13.59375 -57.09375 14.4375 -56.1875 C 15.289062 -55.289062 15.71875 -54.117188 15.71875 -52.671875 C 15.71875 -51.429688 15.289062 -50.3125 14.4375 -49.3125 C 13.59375 -48.3125 12.300781 -47.8125 10.5625 -47.8125 Z M 14.515625 0 L 6.8125 0 L 6.8125 -39.28125 L 14.515625 -39.28125 Z M 14.515625 0 "/></g></g></g><g fill="#fff" fill-opacity="1"><g transform="translate(24.934105, 96.067772)"><g><path d="M 42.0625 -49.65625 L 42.0625 -44.125 L 14.828125 -7.375 L 42.84375 -7.375 L 42.84375 0 L 4.25 0 L 4.25 -5.609375 L 31.640625 -42.28125 L 6.09375 -42.28125 L 6.09375 -49.65625 Z M 42.0625 -49.65625 "/></g></g></g></svg>